<svg width="230" height="230" viewBox="0 0 230 230" fill="none" xmlns="http://www.w3.org/2000/svg">
<g clip-path="url(#clip0_11706_2049)">
<rect width="230" height="230" fill="#0055B8"/>
<path fill-rule="evenodd" clip-rule="evenodd" d="M108.256 150.575H114.157L119.173 121.53H102.945L108.256 150.575ZM91.7331 115.956H130.975L132.156 108.915H90.2578L91.7331 115.956Z" fill="white"/>
<path fill-rule="evenodd" clip-rule="evenodd" d="M69 123.079C69 166.405 115.5 175.192 115.5 175.192C115.5 175.192 162 166.405 162 123.079V54H69V123.079ZM79.6373 64.6043H151.059V123.079C151.059 157.922 115.196 164.285 115.196 164.285C115.196 164.285 79.6373 157.922 79.6373 123.079V64.6043Z" fill="white"/>
<path fill-rule="evenodd" clip-rule="evenodd" d="M109.953 101.871H136.395L141.561 71.8757L113.904 88.5396V78.8443L89.8945 93.3873L91.4141 101.871H109.953Z" fill="#FF473C"/>
</g>
<defs>
<clipPath id="clip0_11706_2049">
<rect width="230" height="230" fill="white"/>
</clipPath>
</defs>
</svg>
